<svg id="Layer_1" data-name="Layer 1" xmlns="http://www.w3.org/2000/svg" xmlns:xlink="http://www.w3.org/1999/xlink" viewBox="0 0 991.6 318.37"><defs><style>.cls-1{fill:none;}.cls-2{fill:#e2b543;}.cls-3{fill:#01262b;}.cls-4{fill:#02857f;}.cls-5{clip-path:url(#clip-path);}.cls-6{fill:#fce885;}.cls-7{fill:#fbe784;}.cls-8{fill:#fbe682;}.cls-9{fill:#fae581;}.cls-10{fill:#fae37f;}.cls-11{fill:#f9e27e;}.cls-12{fill:#f9e17c;}.cls-13{fill:#f8e07b;}.cls-14{fill:#f8df7a;}.cls-15{fill:#f7de78;}.cls-16{fill:#f7dd77;}.cls-17{fill:#f6dc75;}.cls-18{fill:#f6db74;}.cls-19{fill:#f5d973;}.cls-20{fill:#f5d871;}.cls-21{fill:#f4d770;}.cls-22{fill:#f4d66e;}.cls-23{fill:#f3d56d;}.cls-24{fill:#f3d46c;}.cls-25{fill:#f2d36a;}.cls-26{fill:#f2d269;}.cls-27{fill:#f1d168;}.cls-28{fill:#f1d066;}.cls-29{fill:#f0cf65;}.cls-30{fill:#f0ce64;}.cls-31{fill:#efcd62;}.cls-32{fill:#efcc61;}.cls-33{fill:#efcb60;}.cls-34{fill:#eeca5f;}.cls-35{fill:#eec95d;}.cls-36{fill:#edc85c;}.cls-37{fill:#edc75b;}.cls-38{fill:#ecc659;}.cls-39{fill:#ecc558;}.cls-40{fill:#ebc457;}.cls-41{fill:#ebc356;}.cls-42{fill:#eac255;}.cls-43{fill:#eac153;}.cls-44{fill:#eac052;}.cls-45{fill:#e9bf51;}.cls-46{fill:#e9be50;}.cls-47{fill:#e8bd4e;}.cls-48{fill:#e8bc4d;}.cls-49{fill:#e7bb4c;}.cls-50{fill:#e7ba4b;}.cls-51{fill:#e7b94a;}.cls-52{fill:#e6b849;}.cls-53{fill:#e6b847;}.cls-54{fill:#e5b746;}.cls-55{fill:#e5b645;}.cls-56{fill:#e4b544;}.cls-57{fill:#e4b443;}.cls-58{fill:#e4b342;}.cls-59{fill:#e3b241;}.cls-60{fill:#e3b140;}.cls-61{fill:#e2b13f;}.cls-62{fill:#e2b03e;}.cls-63{fill:#e2af3c;}.cls-64{fill:#e1ae3b;}.cls-65{fill:#e1ad3a;}.cls-66{fill:#e1ac39;}.cls-67{fill:#e0ac38;}.cls-68{fill:#e0ab37;}.cls-69{fill:#dfaa36;}.cls-70{fill:#dfa935;}.cls-71{fill:#dfa834;}.cls-72{fill:#dea833;}.cls-73{fill:#dea732;}.cls-74{fill:#dea631;}.cls-75{fill:#dda530;}.cls-76{fill:#dda52f;}.cls-77{fill:#dda42e;}.cls-78{fill:#dca32e;}.cls-79{fill:#dca22d;}.cls-80{fill:#dca22c;}.cls-81{fill:#dba12b;}.cls-82{fill:#dba02a;}.cls-83{fill:#dba029;}.cls-84{fill:#da9f28;}.cls-85{fill:#da9e27;}.cls-86{fill:#da9e26;}.cls-87{fill:#d99d26;}.cls-88{fill:#d99c25;}.cls-89{fill:#d99c24;}.cls-90{fill:#d99b23;}.cls-91{fill:#d89a22;}.cls-92{fill:#d89921;}.cls-93{fill:#d79920;}.cls-94{fill:#d7981f;}.cls-95{fill:#d7971f;}.cls-96{fill:#d7971e;}.cls-97{fill:#d6961d;}.cls-98{fill:#d6951c;}.cls-99{fill:#d6951b;}.cls-100{fill:#d5941b;}.cls-101{fill:#d5941a;}.cls-102{fill:#d5931a;}.cls-103{fill:#d59319;}.cls-104{fill:#d59318;}.cls-105{fill:#d49218;}.cls-106{fill:#d49217;}.cls-107{fill:#d49117;}.cls-108{fill:#d49116;}.cls-109{fill:#d49016;}.cls-110{fill:#d39015;}.cls-111{fill:#d38f15;}.cls-112{fill:#d38f14;}.cls-113{fill:#b77507;}</style><clipPath id="clip-path" transform="translate(-50.4 -347.81)"><path class="cls-1" d="M987.63,521.43a93.22,93.22,0,0,1-3,14.15,108.06,108.06,0,0,1-5.35,14.74,110.63,110.63,0,0,1-12.09,20.57,105.61,105.61,0,0,1-35.86,30.55,99.64,99.64,0,0,1-10.78,4.94A100.66,100.66,0,0,1,909,610c-2.56.63-5.14,1.27-7.73,1.69a105.07,105.07,0,0,1-14.06,1.49,101.43,101.43,0,0,1-17-.75c-3.22-.47-6.44-1-9.63-1.75a115.43,115.43,0,0,1-13.4-3.91,110.66,110.66,0,0,1-12.87-5.66,105.93,105.93,0,0,1-17.65-11.36,102.48,102.48,0,0,1-17-17,115.41,115.41,0,0,1-10.87-16.49,99.17,99.17,0,0,1-5.69-12.41,93.85,93.85,0,0,1-3.55-11.27c-.58-2.44-1.13-4.89-1.63-7.33-.36-1.72-.61-3.49-.86-5.24-.92-6.51-.73-13.06-.66-19.6a87.42,87.42,0,0,1,1.13-10.82c.37-2.7,1-5.34,1.54-8,.42-2,1.14-3.92,1.66-5.9.57-2.14,1.37-4.2,2.1-6.28.86-2.44,1.94-4.78,3-7.13a103,103,0,0,1,8.94-15.65,94.76,94.76,0,0,1,7.34-9.36,107.46,107.46,0,0,1,33.79-25.56A113.05,113.05,0,0,1,848,406.82a103,103,0,0,1,10.53-3c3-.67,6-1.15,9.12-1.56a103.81,103.81,0,0,1,17.43-1.11,99.56,99.56,0,0,1,14.33,1.34c3.62.66,7.26,1.36,10.84,2.32,3.78,1,7.51,2.16,11.15,3.53a92.69,92.69,0,0,1,12.75,5.92,124.36,124.36,0,0,1,15.17,10.13,100.91,100.91,0,0,1,23.1,26.19,113.35,113.35,0,0,1,7.23,13.59,97.8,97.8,0,0,1,3.64,9.58c.8,2.6,1.59,5.2,2.29,7.82a62.68,62.68,0,0,1,1.46,6.9,93.22,93.22,0,0,1,1.4,18.42A68.09,68.09,0,0,1,987.63,521.43Z"/></clipPath></defs><path class="cls-2" d="M50.53,526.67c0-22.15.15-44.32-.09-66.47-.07-6.47,1.69-9.16,8.78-8.85,18.61.79,37.27-.64,55.87,1.53,31.86,3.73,51.72,20.15,58.43,51.61,5.25,24.58,4.06,49.1-10.92,70.86-10.64,15.46-25,24.88-44.4,25.88-20.27,1.06-40.53.11-60.79.68-5.29.15-7.06-1.84-7-7.14.22-22.69.09-45.4.09-68.1Zm28.37.56h-.12c0,9.19-.13,18.38,0,27.57.5,29-4.6,23.31,25,23,24-.28,38.73-13.22,41.56-35.2,1.6-12.46,1.84-25.22-2-37.74-4.55-14.71-17.53-26.07-32.83-27.1-7.8-.52-15.66-.24-23.47-.69-6-.35-8.23,2.17-8.14,8C79,499.12,78.9,513.18,78.9,527.23Z" transform="translate(-50.4 -347.81)"/><path class="cls-2" d="M545.51,526.43l0-63.82c0-11.38,5.37-11,15.55-11l30.15.12c17.94.07,37.71.83,50.86,13,11.46,10.63,14.84,27.75,13,43.27-1.33,11.09-5.82,22.89-15.69,28.1-3.07,1.62-7.07,3.24-7.29,6.7a8.33,8.33,0,0,0,1.3,4.25l25.7,49.66c.69,1.32,1.31,3.13.21,4.14a3.42,3.42,0,0,1-2.29.63q-9.9.33-19.82.19c-2.51,0-5.17-.13-7.28-1.49s-3.35-3.78-4.46-6.08l-15.08-31.33c-2.73-5.69-5.79-11.73-11.3-14.82-6.09-3.42-13.62-2.36-20.51-1.21a7.09,7.09,0,0,0-3.77,1.42c-1.43,1.32-1.52,3.5-1.51,5.44L573.5,591c0,3.53-.26,7.64-3.18,9.62-1.75,1.17-4,1.23-6.1,1.23q-6.86,0-13.7-.35a6.16,6.16,0,0,1-3.35-.83c-1.56-1.14-1.7-3.36-1.7-5.29Q545.49,560.9,545.51,526.43Zm27.93-25.13h.06c0,5.68.15,11.36,0,17-.16,4.44,1.71,6.51,6.15,6.48,8.91-.06,17.86.43,26.74-.18,12.67-.87,21.2-11.06,21.15-24.24s-7.85-21.88-21-22.92c-4-.31-8.1-.36-12.16-.4-20.86-.23-20.86-.21-20.86,21Z" transform="translate(-50.4 -347.81)"/><path class="cls-2" d="M246.16,601.84c-34.76-.07-51.81-17.6-52.39-52.86-.31-19.31,3.69-36.93,19.19-49.43,17.91-14.43,38.58-14.73,59-6.38,20,8.19,27.48,25.51,28.75,45.93.58,9.4,1.52,19-1.72,28.11C290,592.3,277.15,604.27,246.16,601.84ZM221,546.4c0,.81,0,1.62,0,2.43.29,11.18,4.08,23.15,13.37,29.37,10.72,7.17,27.14,3.49,33.76-7.58,3.53-5.89,4.35-13,4.77-19.82.38-6.32.48-12.74-1-18.91-4.12-17.83-26-27.23-40.27-13.65C224.21,525.35,221.17,536,221,546.4Z" transform="translate(-50.4 -347.81)"/><path class="cls-2" d="M521.14,578.36q.23-21.43-.08-42.86c-.13-9.57-.47-19.58-5.21-27.89-3.82-6.67-10.21-11.6-17.17-14.86-12.49-5.84-27.1-6.66-40.4-3-10.61,2.89-20.76,8.84-26.68,18.1a31.77,31.77,0,0,0-3.78,8.3c-.48,1.69-.7,3.76.57,5a5.16,5.16,0,0,0,2.71,1,72.78,72.78,0,0,0,12.76,1.07,13,13,0,0,0,5.78-1c1.95-1,3.33-2.77,4.86-4.34a26.31,26.31,0,0,1,22.45-7.5,21.29,21.29,0,0,1,13.5,7.45,15.73,15.73,0,0,1,2.74,14.86,3.5,3.5,0,0,1-1,1.63,4,4,0,0,1-1.83.57c-11.44,1.47-23.09.94-34.46,2.87s-22.95,6.87-29.27,16.51c-7.18,10.94-5.75,26.27,2,36.84,3,4.06,6.87,7.59,11.61,9.26,5.09,1.8,10.66,1.34,16.07,1.34,4.88,0,9.79.42,14.65-.08s9.79-2,13.35-5.39a44.7,44.7,0,0,1,4.19-4.07c2.42-1.74,4.86-2,5.33,1.09.41,2.64.24,5.3,2.47,7.22,2,1.73,4.93,1.75,7.59,1.68l13-.34a3.3,3.3,0,0,0,4-3.92Q521,588.13,521.14,578.36Zm-32.36-5a28,28,0,0,1-21,10.09c-5.94.06-12.2-2.09-15.77-6.84a12.51,12.51,0,0,1,.32-15.5c4.28-5,11.7-6.2,17.9-7A144.56,144.56,0,0,1,488.63,553a6.41,6.41,0,0,1,3.7.8c1.29.92,1.73,2.63,1.85,4.21a21.13,21.13,0,0,1-3.85,13.21A24.4,24.4,0,0,1,488.78,573.32Z" transform="translate(-50.4 -347.81)"/><path class="cls-2" d="M374.35,525.65c0-22.43.16-44.86-.11-67.29-.07-6.27,1.93-8.49,8.37-8.51,18.17,0,18.15-.3,18.18,18.12q.1,61.62.22,123.24c0,11.54-.05,11.71-11.17,11.52-15.44-.27-16,4-15.74-16.27s.06-40.54.06-60.81Z" transform="translate(-50.4 -347.81)"/><path class="cls-2" d="M319.12,524.87c0-22.43.16-44.87-.1-67.3-.08-6.26,1.93-8.49,8.36-8.5,18.17,0,18.16-.3,18.19,18.11q.09,61.62.22,123.25c0,11.53-.06,11.71-11.17,11.52-15.45-.28-16,4-15.75-16.27s.06-40.54.06-60.81Z" transform="translate(-50.4 -347.81)"/><path class="cls-2" d="M709.83,546.5c0,15.43-.22,30.86.11,46.27.13,6.42-1.52,9.2-8.62,9.15-19.29-.14-19.3.16-19.28-19.26,0-27.87.23-55.74,0-83.61-.07-7.21,2.2-9.4,9.45-8.86,18.25,1.34,18.3,1,18.36,19.78,0,12.18,0,24.36,0,36.53Z" transform="translate(-50.4 -347.81)"/><path class="cls-2" d="M695.24,448.69c10.29-.06,14.66,3.75,14.73,12.86s-6.26,15.69-14.83,15.63a15.14,15.14,0,0,1-14.55-14.52C680.52,452.89,684.86,448.75,695.24,448.69Z" transform="translate(-50.4 -347.81)"/><path class="cls-3" d="M885.55,347.81h-5A159.21,159.21,0,0,0,723.88,504.36v5.28A159.21,159.21,0,0,0,880.57,666.19h5A159.22,159.22,0,0,0,1042,516.32V497.68A159.22,159.22,0,0,0,885.55,347.81ZM1030.21,513a135.42,135.42,0,0,1-1.29,14.34c-.72,5.09-1.58,10.15-2.77,15.13a119.34,119.34,0,0,1-5.52,17.76,187.41,187.41,0,0,1-12.06,24.4A159.89,159.89,0,0,1,996,602.37c-3.33,4.22-7.32,7.76-10.9,11.7a83.92,83.92,0,0,1-9.7,8.88c-3.58,2.87-7.4,5.42-11.13,8.11-3.25,2.35-6.74,4.33-10.13,6.46a27.18,27.18,0,0,1-4,2.17c-4.08,1.71-7.81,4.16-12,5.66-4.86,1.74-9.62,3.69-14.63,5.06-5.28,1.43-10.58,2.66-16,3.56a107.52,107.52,0,0,1-14.44,1.57c-2.77.09-5.54.33-8.31.44-3.24.12-6.45-.3-9.68-.41a129.68,129.68,0,0,1-16.9-1.91A133.72,133.72,0,0,1,839.06,649a124.62,124.62,0,0,1-14.52-5.4,126.93,126.93,0,0,1-13.88-7.11c-3.68-2.28-7.6-4.22-11.08-6.82s-7.09-5.23-10.46-8.1c-2.71-2.32-5.39-4.65-8-7.11A156.22,156.22,0,0,1,752,575.24a136.28,136.28,0,0,1-8.22-19.12A134.07,134.07,0,0,1,739.48,541c-1-4.69-1.79-9.42-2.34-14.2A144.34,144.34,0,0,1,736,507.08a99.15,99.15,0,0,1,.84-16A141.19,141.19,0,0,1,739.1,477c.86-4,1.75-8,2.88-11.93a109.58,109.58,0,0,1,3.94-11.35,161,161,0,0,1,7-14.94,146.35,146.35,0,0,1,18.54-27.1,148.92,148.92,0,0,1,13.15-13.2,146.79,146.79,0,0,1,21.28-15.85,141.59,141.59,0,0,1,15-8,148.1,148.1,0,0,1,22.34-8.17,156.74,156.74,0,0,1,20.41-4.26,136.91,136.91,0,0,1,26.53-1.3,154,154,0,0,1,23,2.89,149.84,149.84,0,0,1,18.2,4.9c3.79,1.31,7.51,2.81,11.22,4.36a126.42,126.42,0,0,1,15.15,7.65,131.79,131.79,0,0,1,13.33,8.87c3.66,2.77,7.29,5.59,10.73,8.63,2.48,2.19,4.84,4.52,7.13,6.91a143.44,143.44,0,0,1,11.18,12.83A148,148,0,0,1,1014.8,441a155.22,155.22,0,0,1,8.62,20.86,140.07,140.07,0,0,1,5,20.74A156.1,156.1,0,0,1,1030.21,513Z" transform="translate(-50.4 -347.81)"/><path class="cls-4" d="M1028.39,482.58a140.07,140.07,0,0,0-5-20.74A155.22,155.22,0,0,0,1014.8,441a148,148,0,0,0-14.71-23.12A143.44,143.44,0,0,0,988.91,405c-2.29-2.39-4.65-4.72-7.13-6.91-3.44-3-7.07-5.86-10.73-8.63a131.79,131.79,0,0,0-13.33-8.87A126.42,126.42,0,0,0,942.57,373c-3.71-1.55-7.43-3.05-11.22-4.36a149.84,149.84,0,0,0-18.2-4.9,154,154,0,0,0-23-2.89,136.91,136.91,0,0,0-26.53,1.3,156.74,156.74,0,0,0-20.41,4.26,148.1,148.1,0,0,0-22.34,8.17,141.59,141.59,0,0,0-15,8,146.79,146.79,0,0,0-21.28,15.85,148.92,148.92,0,0,0-13.15,13.2,146.35,146.35,0,0,0-18.54,27.1,161,161,0,0,0-7,14.94A109.58,109.58,0,0,0,742,465C740.85,469,740,473,739.1,477a141.19,141.19,0,0,0-2.27,14.1,99.15,99.15,0,0,0-.84,16,144.34,144.34,0,0,0,1.15,19.68c.55,4.78,1.32,9.51,2.34,14.2a134.07,134.07,0,0,0,4.31,15.16A136.28,136.28,0,0,0,752,575.24a156.22,156.22,0,0,0,29.15,39.2c2.57,2.46,5.25,4.79,8,7.11,3.37,2.87,6.93,5.47,10.46,8.1s7.4,4.54,11.08,6.82a126.93,126.93,0,0,0,13.88,7.11,124.62,124.62,0,0,0,14.52,5.4,133.72,133.72,0,0,0,19.15,4.68,129.68,129.68,0,0,0,16.9,1.91c3.23.11,6.44.53,9.68.41,2.77-.11,5.54-.35,8.31-.44A107.52,107.52,0,0,0,907.54,654c5.38-.9,10.68-2.13,16-3.56,5-1.37,9.77-3.32,14.63-5.06,4.19-1.5,7.92-4,12-5.66a27.18,27.18,0,0,0,4-2.17c3.39-2.13,6.88-4.11,10.13-6.46,3.73-2.69,7.55-5.24,11.13-8.11a83.92,83.92,0,0,0,9.7-8.88c3.58-3.94,7.57-7.48,10.9-11.7a159.89,159.89,0,0,0,12.53-17.71,187.41,187.41,0,0,0,12.06-24.4,119.34,119.34,0,0,0,5.52-17.76c1.19-5,2-10,2.77-15.13a135.42,135.42,0,0,0,1.29-14.34A156.1,156.1,0,0,0,1028.39,482.58Zm-27.71,38.6a106.39,106.39,0,0,1-2.81,15.76,117,117,0,0,1-4.19,12.95,120,120,0,0,1-7.36,16,64.14,64.14,0,0,1-4.5,7c-1.43,1.87-2.45,4-3.9,5.9a122.22,122.22,0,0,1-15.43,16.57A81.69,81.69,0,0,1,956,601c-4.33,3.09-8.45,6.51-13.19,9-3.21,1.68-6.25,3.65-9.56,5.16-3.08,1.41-6.19,2.71-9.34,3.93a85.58,85.58,0,0,1-8.32,2.8,133.84,133.84,0,0,1-19.07,3.82,125.22,125.22,0,0,1-17.74.63,117.4,117.4,0,0,1-13.36-1.23c-4.23-.58-8.33-1.73-12.48-2.63a102.48,102.48,0,0,1-13.71-4.56c-3.19-1.2-6.2-2.86-9.29-4.33-3.9-1.87-7.53-4.22-11.24-6.45-4.26-2.56-8-5.81-11.92-8.83a85.28,85.28,0,0,1-11.11-10.47,120.4,120.4,0,0,1-9.36-11.38,118.22,118.22,0,0,1-9.37-14.73,112.65,112.65,0,0,1-7.1-17.37,114.11,114.11,0,0,1-3.66-13.25,135,135,0,0,1-2.31-18.72,140,140,0,0,1,.35-17.26,102.17,102.17,0,0,1,2.77-16.9,75.7,75.7,0,0,1,1.94-7.68,157.71,157.71,0,0,1,7.81-18.37A116.59,116.59,0,0,1,789,433.4a126.49,126.49,0,0,1,14.43-15.21,113.36,113.36,0,0,1,30.66-19.72,117.7,117.7,0,0,1,20.57-6.86,127.8,127.8,0,0,1,14.2-2.36c4.62-.54,9.25-.6,12.82-.67a125.9,125.9,0,0,1,20,1.39,116.21,116.21,0,0,1,23,6,124,124,0,0,1,22.44,11.34,107.77,107.77,0,0,1,17.1,13.34,93.82,93.82,0,0,1,8.45,8.82c2.46,3.06,4.9,6.14,7.21,9.32A115.43,115.43,0,0,1,992.17,461a117.7,117.7,0,0,1,6.47,19.79,115.4,115.4,0,0,1,2.62,18.81A119.79,119.79,0,0,1,1000.68,521.18Z" transform="translate(-50.4 -347.81)"/><path class="cls-3" d="M1001.26,499.59a115.4,115.4,0,0,0-2.62-18.81A117.7,117.7,0,0,0,992.17,461a115.43,115.43,0,0,0-12.26-22.23c-2.31-3.18-4.75-6.26-7.21-9.32a93.82,93.82,0,0,0-8.45-8.82,107.77,107.77,0,0,0-17.1-13.34,124,124,0,0,0-22.44-11.34,116.21,116.21,0,0,0-23-6,125.9,125.9,0,0,0-20-1.39c-3.57.07-8.2.13-12.82.67a127.8,127.8,0,0,0-14.2,2.36,117.7,117.7,0,0,0-20.57,6.86,113.36,113.36,0,0,0-30.66,19.72A126.49,126.49,0,0,0,789,433.4a116.59,116.59,0,0,0-12.27,18.78,157.71,157.71,0,0,0-7.81,18.37,75.7,75.7,0,0,0-1.94,7.68,102.17,102.17,0,0,0-2.77,16.9,140,140,0,0,0-.35,17.26,135,135,0,0,0,2.31,18.72,114.11,114.11,0,0,0,3.66,13.25,112.65,112.65,0,0,0,7.1,17.37,118.22,118.22,0,0,0,9.37,14.73,120.4,120.4,0,0,0,9.36,11.38,85.28,85.28,0,0,0,11.11,10.47c3.92,3,7.66,6.27,11.92,8.83,3.71,2.23,7.34,4.58,11.24,6.45,3.09,1.47,6.1,3.13,9.29,4.33a102.48,102.48,0,0,0,13.71,4.56c4.15.9,8.25,2,12.48,2.63a117.4,117.4,0,0,0,13.36,1.23,125.22,125.22,0,0,0,17.74-.63,133.84,133.84,0,0,0,19.07-3.82,85.58,85.58,0,0,0,8.32-2.8c3.15-1.22,6.26-2.52,9.34-3.93,3.31-1.51,6.35-3.48,9.56-5.16,4.74-2.47,8.86-5.89,13.19-9a81.69,81.69,0,0,0,6.49-5.74,122.22,122.22,0,0,0,15.43-16.57c1.45-1.87,2.47-4,3.9-5.9a64.14,64.14,0,0,0,4.5-7,120,120,0,0,0,7.36-16,117,117,0,0,0,4.19-12.95,106.39,106.39,0,0,0,2.81-15.76A119.79,119.79,0,0,0,1001.26,499.59Zm-13.63,21.84a93.22,93.22,0,0,1-3,14.15,108.06,108.06,0,0,1-5.35,14.74,110.63,110.63,0,0,1-12.09,20.57,105.61,105.61,0,0,1-35.86,30.55,99.64,99.64,0,0,1-10.78,4.94A100.66,100.66,0,0,1,909,610c-2.56.63-5.14,1.27-7.73,1.69a105.07,105.07,0,0,1-14.06,1.49,101.43,101.43,0,0,1-17-.75c-3.22-.47-6.44-1-9.63-1.75a115.43,115.43,0,0,1-13.4-3.91,110.66,110.66,0,0,1-12.87-5.66,105.93,105.93,0,0,1-17.65-11.36,102.48,102.48,0,0,1-17-17,115.41,115.41,0,0,1-10.87-16.49,99.17,99.17,0,0,1-5.69-12.41,93.85,93.85,0,0,1-3.55-11.27c-.58-2.44-1.13-4.89-1.63-7.33-.36-1.72-.61-3.49-.86-5.24-.92-6.51-.73-13.06-.66-19.6a87.42,87.42,0,0,1,1.13-10.82c.37-2.7,1-5.34,1.54-8,.42-2,1.14-3.92,1.66-5.9.57-2.14,1.37-4.2,2.1-6.28.86-2.44,1.94-4.78,3-7.13a103,103,0,0,1,8.94-15.65,94.76,94.76,0,0,1,7.34-9.36,107.46,107.46,0,0,1,33.79-25.56A113.05,113.05,0,0,1,848,406.82a103,103,0,0,1,10.53-3c3-.67,6-1.15,9.12-1.56a103.81,103.81,0,0,1,17.43-1.11,99.56,99.56,0,0,1,14.33,1.34c3.62.66,7.26,1.36,10.84,2.32,3.78,1,7.51,2.16,11.15,3.53a92.69,92.69,0,0,1,12.75,5.92,124.36,124.36,0,0,1,15.17,10.13,100.91,100.91,0,0,1,23.1,26.19,113.35,113.35,0,0,1,7.23,13.59,97.8,97.8,0,0,1,3.64,9.58c.8,2.6,1.59,5.2,2.29,7.82a62.68,62.68,0,0,1,1.46,6.9,93.22,93.22,0,0,1,1.4,18.42A68.09,68.09,0,0,1,987.63,521.43Z" transform="translate(-50.4 -347.81)"/><g class="cls-5"><polygon class="cls-6" points="750 53.16 725.78 144.7 725.78 53.16 750 53.16"/><polygon class="cls-6" points="751.32 53.16 725.78 149.71 725.78 144.7 750 53.16 751.32 53.16"/><polygon class="cls-7" points="752.65 53.16 725.78 154.71 725.78 149.71 751.32 53.16 752.65 53.16"/><polygon class="cls-8" points="753.97 53.16 725.78 159.71 725.78 154.71 752.65 53.16 753.97 53.16"/><polygon class="cls-9" points="755.3 53.16 725.78 164.72 725.78 159.71 753.97 53.16 755.3 53.16"/><polygon class="cls-10" points="756.62 53.16 725.78 169.72 725.78 164.72 755.3 53.16 756.62 53.16"/><polygon class="cls-11" points="757.95 53.16 725.78 174.72 725.78 169.72 756.62 53.16 757.95 53.16"/><polygon class="cls-12" points="759.27 53.16 725.78 179.72 725.78 174.72 757.95 53.16 759.27 53.16"/><polygon class="cls-13" points="760.59 53.16 725.78 184.73 725.78 179.72 759.27 53.16 760.59 53.16"/><polygon class="cls-14" points="761.92 53.16 725.78 189.73 725.78 184.73 760.59 53.16 761.92 53.16"/><polygon class="cls-15" points="763.24 53.16 725.78 194.74 725.78 189.73 761.92 53.16 763.24 53.16"/><polygon class="cls-16" points="764.57 53.16 725.78 199.74 725.78 194.74 763.24 53.16 764.57 53.16"/><polygon class="cls-17" points="765.89 53.16 725.78 204.74 725.78 199.74 764.57 53.16 765.89 53.16"/><polygon class="cls-18" points="767.21 53.16 725.78 209.75 725.78 204.74 765.89 53.16 767.21 53.16"/><polygon class="cls-19" points="768.54 53.16 725.78 214.75 725.78 209.75 767.21 53.16 768.54 53.16"/><polygon class="cls-20" points="769.86 53.16 725.78 219.75 725.78 214.75 768.54 53.16 769.86 53.16"/><polygon class="cls-21" points="771.19 53.16 725.78 224.76 725.78 219.75 769.86 53.16 771.19 53.16"/><polygon class="cls-22" points="772.51 53.16 725.78 229.76 725.78 224.76 771.19 53.16 772.51 53.16"/><polygon class="cls-23" points="773.83 53.16 725.78 234.76 725.78 229.76 772.51 53.16 773.83 53.16"/><polygon class="cls-24" points="775.16 53.16 725.78 239.77 725.78 234.76 773.83 53.16 775.16 53.16"/><polygon class="cls-25" points="776.48 53.16 726.66 241.41 725.78 241.17 725.78 239.77 775.16 53.16 776.48 53.16"/><polygon class="cls-26" points="777.81 53.16 727.9 241.74 726.66 241.41 776.48 53.16 777.81 53.16"/><polygon class="cls-27" points="779.13 53.16 729.14 242.06 727.9 241.74 777.81 53.16 779.13 53.16"/><polygon class="cls-28" points="780.46 53.16 730.38 242.39 729.14 242.06 779.13 53.16 780.46 53.16"/><polygon class="cls-29" points="781.78 53.16 731.62 242.72 730.38 242.39 780.46 53.16 781.78 53.16"/><polygon class="cls-30" points="783.1 53.16 732.85 243.04 731.62 242.72 781.78 53.16 783.1 53.16"/><polygon class="cls-31" points="784.43 53.16 734.09 243.37 732.85 243.04 783.1 53.16 784.43 53.16"/><polygon class="cls-32" points="785.75 53.16 735.33 243.7 734.09 243.37 784.43 53.16 785.75 53.16"/><polygon class="cls-33" points="787.08 53.16 736.57 244.03 735.33 243.7 785.75 53.16 787.08 53.16"/><polygon class="cls-34" points="788.4 53.16 737.8 244.35 736.57 244.03 787.08 53.16 788.4 53.16"/><polygon class="cls-35" points="789.72 53.16 739.04 244.68 737.8 244.35 788.4 53.16 789.72 53.16"/><polygon class="cls-36" points="791.05 53.16 740.28 245.01 739.04 244.68 789.72 53.16 791.05 53.16"/><polygon class="cls-37" points="792.37 53.16 741.51 245.34 740.28 245.01 791.05 53.16 792.37 53.16"/><polygon class="cls-38" points="793.7 53.16 742.75 245.66 741.51 245.34 792.37 53.16 793.7 53.16"/><polygon class="cls-39" points="795.02 53.16 743.99 245.99 742.75 245.66 793.7 53.16 795.02 53.16"/><polygon class="cls-40" points="796.34 53.16 745.23 246.32 743.99 245.99 795.02 53.16 796.34 53.16"/><polygon class="cls-41" points="797.67 53.16 746.47 246.65 745.23 246.32 796.34 53.16 797.67 53.16"/><polygon class="cls-42" points="798.99 53.16 747.7 246.97 746.47 246.65 797.67 53.16 798.99 53.16"/><polygon class="cls-43" points="800.32 53.16 748.94 247.3 747.7 246.97 798.99 53.16 800.32 53.16"/><polygon class="cls-44" points="801.64 53.16 750.18 247.63 748.94 247.3 800.32 53.16 801.64 53.16"/><polygon class="cls-45" points="802.97 53.16 751.41 247.96 750.18 247.63 801.64 53.16 802.97 53.16"/><polygon class="cls-46" points="804.29 53.16 752.65 248.28 751.41 247.96 802.97 53.16 804.29 53.16"/><polygon class="cls-47" points="805.61 53.16 753.89 248.61 752.65 248.28 804.29 53.16 805.61 53.16"/><polygon class="cls-48" points="806.94 53.16 755.13 248.94 753.89 248.61 805.61 53.16 806.94 53.16"/><polygon class="cls-49" points="808.26 53.16 756.36 249.27 755.13 248.94 806.94 53.16 808.26 53.16"/><polygon class="cls-50" points="809.59 53.16 757.6 249.59 756.36 249.27 808.26 53.16 809.59 53.16"/><polygon class="cls-51" points="810.91 53.16 758.84 249.92 757.6 249.59 809.59 53.16 810.91 53.16"/><polygon class="cls-52" points="812.23 53.16 760.08 250.25 758.84 249.92 810.91 53.16 812.23 53.16"/><polygon class="cls-53" points="813.56 53.16 761.31 250.58 760.08 250.25 812.23 53.16 813.56 53.16"/><polygon class="cls-54" points="814.88 53.16 762.55 250.91 761.31 250.58 813.56 53.16 814.88 53.16"/><polygon class="cls-55" points="816.21 53.16 763.79 251.23 762.55 250.91 814.88 53.16 816.21 53.16"/><polygon class="cls-56" points="817.53 53.16 765.03 251.56 763.79 251.23 816.21 53.16 817.53 53.16"/><polygon class="cls-57" points="818.85 53.16 766.26 251.89 765.03 251.56 817.53 53.16 818.85 53.16"/><polygon class="cls-58" points="820.18 53.16 767.5 252.22 766.26 251.89 818.85 53.16 820.18 53.16"/><polygon class="cls-59" points="821.5 53.16 768.74 252.54 767.5 252.22 820.18 53.16 821.5 53.16"/><polygon class="cls-60" points="822.83 53.16 769.98 252.87 768.74 252.54 821.5 53.16 822.83 53.16"/><polygon class="cls-61" points="824.15 53.16 771.21 253.2 769.98 252.87 822.83 53.16 824.15 53.16"/><polygon class="cls-62" points="825.48 53.16 772.45 253.53 771.21 253.2 824.15 53.16 825.48 53.16"/><polygon class="cls-63" points="826.8 53.16 773.69 253.85 772.45 253.53 825.48 53.16 826.8 53.16"/><polygon class="cls-64" points="828.12 53.16 774.93 254.18 773.69 253.85 826.8 53.16 828.12 53.16"/><polygon class="cls-65" points="829.45 53.16 776.16 254.51 774.93 254.18 828.12 53.16 829.45 53.16"/><polygon class="cls-66" points="830.77 53.16 777.4 254.84 776.16 254.51 829.45 53.16 830.77 53.16"/><polygon class="cls-67" points="832.1 53.16 778.64 255.16 777.4 254.84 830.77 53.16 832.1 53.16"/><polygon class="cls-68" points="833.42 53.16 779.88 255.49 778.64 255.16 832.1 53.16 833.42 53.16"/><polygon class="cls-69" points="834.74 53.16 781.11 255.82 779.88 255.49 833.42 53.16 834.74 53.16"/><polygon class="cls-70" points="836.07 53.16 782.35 256.14 781.11 255.82 834.74 53.16 836.07 53.16"/><polygon class="cls-71" points="837.39 53.16 783.59 256.47 782.35 256.14 836.07 53.16 837.39 53.16"/><polygon class="cls-72" points="838.72 53.16 784.83 256.8 783.59 256.47 837.39 53.16 838.72 53.16"/><polygon class="cls-73" points="840.04 53.16 786.06 257.13 784.83 256.8 838.72 53.16 840.04 53.16"/><polygon class="cls-74" points="841.36 53.16 787.3 257.45 786.06 257.13 840.04 53.16 841.36 53.16"/><polygon class="cls-75" points="842.69 53.16 788.54 257.78 787.3 257.45 841.36 53.16 842.69 53.16"/><polygon class="cls-76" points="844.01 53.16 789.77 258.11 788.54 257.78 842.69 53.16 844.01 53.16"/><polygon class="cls-77" points="845.34 53.16 791.01 258.44 789.77 258.11 844.01 53.16 845.34 53.16"/><polygon class="cls-78" points="846.66 53.16 792.25 258.76 791.01 258.44 845.34 53.16 846.66 53.16"/><polygon class="cls-79" points="847.21 53.16 847.93 53.36 793.49 259.09 792.25 258.76 846.66 53.16 847.21 53.16"/><rect class="cls-80" x="765.32" y="503.56" width="212.82" height="1.28" transform="translate(110.89 870.11) rotate(-75.18)"/><rect class="cls-81" x="766.55" y="503.89" width="212.82" height="1.28" transform="translate(111.49 871.55) rotate(-75.18)"/><rect class="cls-82" x="767.79" y="504.22" width="212.82" height="1.28" transform="matrix(0.26, -0.97, 0.97, 0.26, 112.1, 872.99)"/><rect class="cls-83" x="769.03" y="504.54" width="212.82" height="1.28" transform="translate(112.7 874.43) rotate(-75.18)"/><rect class="cls-84" x="770.27" y="504.87" width="212.82" height="1.28" transform="translate(113.31 875.87) rotate(-75.18)"/><rect class="cls-85" x="771.5" y="505.2" width="212.82" height="1.28" transform="translate(113.91 877.31) rotate(-75.18)"/><rect class="cls-86" x="772.74" y="505.53" width="212.82" height="1.28" transform="translate(114.52 878.75) rotate(-75.18)"/><rect class="cls-87" x="773.98" y="505.85" width="212.82" height="1.28" transform="translate(115.12 880.19) rotate(-75.18)"/><rect class="cls-88" x="775.22" y="506.18" width="212.82" height="1.28" transform="matrix(0.26, -0.97, 0.97, 0.26, 115.72, 881.63)"/><rect class="cls-89" x="776.45" y="506.51" width="212.82" height="1.28" transform="translate(116.33 883.07) rotate(-75.18)"/><rect class="cls-90" x="777.69" y="506.84" width="212.82" height="1.28" transform="translate(116.93 884.51) rotate(-75.18)"/><rect class="cls-91" x="778.93" y="507.16" width="212.82" height="1.28" transform="translate(117.54 885.95) rotate(-75.18)"/><rect class="cls-91" x="780.17" y="507.49" width="212.82" height="1.28" transform="translate(118.14 887.39) rotate(-75.18)"/><rect class="cls-92" x="781.4" y="507.82" width="212.82" height="1.28" transform="translate(118.75 888.83) rotate(-75.18)"/><rect class="cls-93" x="782.64" y="508.15" width="212.82" height="1.28" transform="translate(119.35 890.27) rotate(-75.18)"/><rect class="cls-94" x="783.88" y="508.47" width="212.82" height="1.28" transform="matrix(0.26, -0.97, 0.97, 0.26, 119.95, 891.71)"/><rect class="cls-95" x="785.12" y="508.8" width="212.82" height="1.28" transform="translate(120.56 893.15) rotate(-75.18)"/><rect class="cls-96" x="786.35" y="509.13" width="212.82" height="1.28" transform="translate(121.16 894.59) rotate(-75.18)"/><rect class="cls-97" x="787.59" y="509.46" width="212.82" height="1.28" transform="matrix(0.26, -0.97, 0.97, 0.26, 121.77, 896.03)"/><polygon class="cls-97" points="871.45 59.58 872.68 59.91 818.29 265.45 817.52 265.45 817 265.31 871.45 59.58"/><polygon class="cls-98" points="872.68 59.91 873.92 60.23 819.61 265.45 818.29 265.45 872.68 59.91"/><polygon class="cls-99" points="873.92 60.23 875.16 60.56 820.93 265.45 819.61 265.45 873.92 60.23"/><polygon class="cls-100" points="875.16 60.56 876.39 60.89 822.26 265.45 820.93 265.45 875.16 60.56"/><polygon class="cls-101" points="876.39 60.89 877.63 61.22 823.58 265.45 822.26 265.45 876.39 60.89"/><polygon class="cls-102" points="877.63 61.22 878.87 61.54 824.91 265.45 823.58 265.45 877.63 61.22"/><polygon class="cls-103" points="878.87 61.54 880.11 61.87 826.23 265.45 824.91 265.45 878.87 61.54"/><polygon class="cls-104" points="880.11 61.87 881.35 62.2 827.55 265.45 826.23 265.45 880.11 61.87"/><polygon class="cls-105" points="881.35 62.2 882.58 62.53 828.88 265.45 827.55 265.45 881.35 62.2"/><polygon class="cls-106" points="882.58 62.53 883.82 62.85 830.2 265.45 828.88 265.45 882.58 62.53"/><polygon class="cls-107" points="883.82 62.85 885.06 63.18 831.53 265.45 830.2 265.45 883.82 62.85"/><polygon class="cls-108" points="885.06 63.18 886.29 63.51 832.85 265.45 831.53 265.45 885.06 63.18"/><polygon class="cls-108" points="886.29 63.51 887.53 63.84 834.18 265.45 832.85 265.45 886.29 63.51"/><polygon class="cls-109" points="887.53 63.84 888.77 64.16 835.5 265.45 834.18 265.45 887.53 63.84"/><polygon class="cls-110" points="888.77 64.16 890.01 64.49 836.82 265.45 835.5 265.45 888.77 64.16"/><polygon class="cls-110" points="890.01 64.49 891.25 64.82 838.15 265.45 836.82 265.45 890.01 64.49"/><polygon class="cls-111" points="891.25 64.82 892.48 65.14 839.47 265.45 838.15 265.45 891.25 64.82"/><polygon class="cls-112" points="892.48 65.14 893.72 65.47 840.8 265.45 839.47 265.45 892.48 65.14"/><polygon class="cls-112" points="893.72 65.47 894.96 65.8 842.12 265.45 840.8 265.45 893.72 65.47"/><polygon class="cls-112" points="894.96 65.8 896.19 66.13 843.45 265.45 842.12 265.45 894.96 65.8"/><polygon class="cls-112" points="896.19 66.13 938.42 77.3 938.42 265.45 843.45 265.45 896.19 66.13"/></g><path class="cls-3" d="M916,489.45c0-1.58-.53-2.09-2.09-2.09h-22c-2.41,0-2.41,0-2.41-2.35q0-8.38,0-16.78c0-1.27.47-1.53,1.6-1a4.52,4.52,0,0,0,1.36.55,6.49,6.49,0,0,1,3.88,2.06c2.63,2.56,5.2,5.2,7.76,7.85.69.71,1,.79,1.47-.22,1.14-2.55,2.38-5.06,3.58-7.59q2-4.23,4-8.48c.35-.72.56-1.35-.32-2a68.83,68.83,0,0,0-8.42-5.76,39.6,39.6,0,0,0-13.64-4.91c-1-.14-1.22-.63-1.19-1.52.06-2.11.06-4.23.07-6.34,0-1.39-.59-2.09-1.88-2.09q-6.72,0-13.43,0c-1.4,0-1.93.6-1.94,2,0,2,0,4.06,0,6.09,0,.53.07,1.18-.71,1.22-1,.06-2,.45-3,.6a28.3,28.3,0,0,0-11.3,4.42c-8.34,5.35-11.72,13.45-12.35,22.93a31.18,31.18,0,0,0,1.79,11.81,25.41,25.41,0,0,0,10.53,13.63c4.31,2.84,9.08,4.67,13.84,6.55a40.23,40.23,0,0,1,9.07,4.46c3.22,2.32,4,6.28,1.79,9.34a8.25,8.25,0,0,1-3.68,2.65,26.9,26.9,0,0,1-9.74,2,48.08,48.08,0,0,1-11.11-.85c-1.49-.32-1.49-.35-1.49,1.14,0,4.14,0,8.29-.06,12.43a2.28,2.28,0,0,0,.54,1.59c2.22,2.57,4.4,5.17,6.61,7.74q9.76,11.4,19.54,22.79a1.52,1.52,0,0,0,1.25.63h23.63c.31,0,.74.14.89-.23s-.16-.67-.41-1q-5.49-6.46-10.95-13-7.68-9.18-15.35-18.39c-.23-.27-.45-.5-.35-.86s.56-.41.92-.44a17.72,17.72,0,0,0,5.24-1.12,38.19,38.19,0,0,0,9.68-5.11c6.23-4.87,9.58-10.9,7.74-19.06a15.08,15.08,0,0,0-6.43-9.07c-1.07-.77-.87-1.62-.76-2.49s1-.61,1.64-.61c4.77,0,9.53,0,14.3,0,1.76,0,2.28-.5,2.29-2.29C916,495.42,916,492.43,916,489.45Zm-42.94-11.72h0V487c0,1.21-.2,1.28-1.29.75-2.58-1.24-3.74-3.51-4.73-6a14,14,0,0,1-.52-7.2,9.22,9.22,0,0,1,5.35-7.39c.82-.38,1.21-.08,1.21,1C873.06,471.37,873.05,474.55,873.05,477.73Z" transform="translate(-50.4 -347.81)"/><path class="cls-113" d="M883.06,597.27h-1.39A89,89,0,0,1,794,509.72c0-.49,0-1,0-1.48s0-1,0-1.48a89,89,0,0,1,87.63-87.54c.93,0,1.86,0,2.78,0A89,89,0,0,1,971.94,503c.1,1.72.15,3.47.15,5.21s-.05,3.5-.15,5.21a89,89,0,0,1-87.49,83.81Zm0-171.34h-1.29a81.92,81.92,0,0,0-81,80.94c0,.45,0,.91,0,1.36s0,.92,0,1.37a81.93,81.93,0,0,0,81,80.94h2.58a82.58,82.58,0,0,0,80.89-77.48c.09-1.59.14-3.22.14-4.83s0-3.23-.14-4.82a82.58,82.58,0,0,0-80.89-77.48Z" transform="translate(-50.4 -347.81)"/></svg>